<svg xmlns="http://www.w3.org/2000/svg" width="375" viewBox="0 0 375 375" height="375" version="1.0"><defs><clipPath id="a"><path d="M 197 109.042969 L 207 109.042969 L 207 118 L 197 118 Z M 197 109.042969"/></clipPath><clipPath id="b"><path d="M 131.050781 109.042969 L 243.9375 109.042969 L 243.9375 203.25 L 131.050781 203.25 Z M 131.050781 109.042969"/></clipPath></defs><path fill="#004AAD" d="M 214.464844 169.050781 L 203.976562 169.050781 L 203.976562 158.5625 L 214.464844 158.5625 Z M 214.464844 169.050781" fill-rule="evenodd"/><path fill="#2A2E30" d="M 186.1875 177.285156 L 177.761719 177.285156 L 177.761719 168.855469 L 186.1875 168.855469 Z M 186.1875 177.285156" fill-rule="evenodd"/><path fill="#004AAD" d="M 202.476562 156.789062 L 194.050781 156.789062 L 194.050781 148.363281 L 202.476562 148.363281 Z M 202.476562 156.789062" fill-rule="evenodd"/><path fill="#2A2E30" d="M 213.054688 147.613281 L 208.84375 147.613281 L 208.84375 143.398438 L 213.054688 143.398438 Z M 213.054688 147.613281" fill-rule="evenodd"/><path fill="#2A2E30" d="M 216.382812 180.324219 L 212.164062 180.324219 L 212.164062 176.113281 L 216.382812 176.113281 Z M 216.382812 180.324219" fill-rule="evenodd"/><path fill="#2A2E30" d="M 195.785156 168.53125 L 191.574219 168.53125 L 191.574219 164.320312 L 195.785156 164.320312 Z M 195.785156 168.53125" fill-rule="evenodd"/><path fill="#2A2E30" d="M 173.316406 180.84375 L 169.105469 180.84375 L 169.105469 176.628906 L 173.316406 176.628906 Z M 173.316406 180.84375" fill-rule="evenodd"/><path fill="#2A2E30" d="M 176.789062 188.707031 L 170.875 188.707031 L 170.875 182.785156 L 176.789062 182.785156 Z M 176.789062 188.707031" fill-rule="evenodd"/><path fill="#2A2E30" d="M 198.175781 197.503906 L 192.253906 197.503906 L 192.253906 191.589844 L 198.175781 191.589844 Z M 198.175781 197.503906" fill-rule="evenodd"/><path fill="#2A2E30" d="M 183.828125 190.976562 L 179.617188 190.976562 L 179.617188 186.761719 L 183.828125 186.761719 Z M 183.828125 190.976562" fill-rule="evenodd"/><path fill="#2A2E30" d="M 162.453125 178.082031 L 158.242188 178.082031 L 158.242188 173.867188 L 162.453125 173.867188 Z M 162.453125 178.082031" fill-rule="evenodd"/><path fill="#004AAD" d="M 186.242188 164.824219 L 175.46875 164.824219 L 175.46875 154.054688 L 186.242188 154.054688 Z M 186.242188 164.824219" fill-rule="evenodd"/><path fill="#004AAD" d="M 208.757812 137.261719 L 196.398438 137.261719 L 196.398438 124.902344 L 208.757812 124.902344 Z M 208.757812 137.261719" fill-rule="evenodd"/><path fill="#2A2E30" d="M 193.265625 145.253906 L 184.839844 145.253906 L 184.839844 136.824219 L 193.265625 136.824219 Z M 193.265625 145.253906" fill-rule="evenodd"/><path fill="#004AAD" d="M 179.988281 134.273438 L 171.566406 134.273438 L 171.566406 125.847656 L 179.988281 125.847656 Z M 179.988281 134.273438" fill-rule="evenodd"/><g clip-path="url(#a)"><path fill="#2A2E30" d="M 206.027344 117.171875 L 197.601562 117.171875 L 197.601562 108.75 L 206.027344 108.75 Z M 206.027344 117.171875" fill-rule="evenodd"/></g><path fill="#2A2E30" d="M 173.605469 168.476562 L 165.179688 168.476562 L 165.179688 160.054688 L 173.605469 160.054688 Z M 173.605469 168.476562" fill-rule="evenodd"/><path fill="#2A2E30" d="M 202.644531 145.699219 L 198.433594 145.699219 L 198.433594 141.488281 L 202.644531 141.488281 Z M 202.644531 145.699219" fill-rule="evenodd"/><path fill="#2A2E30" d="M 188.371094 151.871094 L 184.160156 151.871094 L 184.160156 147.660156 L 188.371094 147.660156 Z M 188.371094 151.871094" fill-rule="evenodd"/><path fill="#2A2E30" d="M 192 131.023438 L 184.453125 131.023438 L 184.453125 123.484375 L 192 123.484375 Z M 192 131.023438" fill-rule="evenodd"/><path fill="#2A2E30" d="M 194.425781 115.910156 L 189.429688 115.910156 L 189.429688 110.921875 L 194.425781 110.921875 Z M 194.425781 115.910156" fill-rule="evenodd"/><path fill="#2A2E30" d="M 182.042969 147.871094 L 174.5 147.871094 L 174.5 140.332031 L 182.042969 140.332031 Z M 182.042969 147.871094" fill-rule="evenodd"/><path fill="#2A2E30" d="M 172.601562 155.019531 L 165.054688 155.019531 L 165.054688 147.480469 L 172.601562 147.480469 Z M 172.601562 155.019531" fill-rule="evenodd"/><path fill="#004AAD" d="M 204.160156 186.640625 L 191.808594 186.640625 L 191.808594 174.289062 L 204.160156 174.289062 Z M 204.160156 186.640625" fill-rule="evenodd"/><g clip-path="url(#b)"><path fill="#2A2E30" d="M 243.757812 160.035156 C 241.242188 160.101562 239.175781 160.777344 237.582031 162.082031 C 236.007812 163.375 234.945312 165.152344 234.410156 167.402344 C 233.886719 169.664062 233.625 173.542969 233.585938 179.011719 C 233.558594 184.484375 233.453125 188.09375 233.285156 189.820312 C 232.984375 192.570312 232.449219 194.789062 231.644531 196.460938 C 230.835938 198.121094 229.84375 199.464844 228.671875 200.476562 C 227.480469 201.46875 225.96875 202.238281 224.140625 202.753906 C 222.898438 203.074219 220.867188 203.242188 218.050781 203.242188 L 215.300781 203.242188 L 215.300781 195.523438 L 216.828125 195.523438 C 220.234375 195.523438 222.484375 194.921875 223.609375 193.675781 C 224.71875 192.449219 225.269531 189.71875 225.269531 185.453125 C 225.269531 176.859375 225.457031 171.4375 225.824219 169.167969 C 226.410156 165.660156 227.417969 162.960938 228.84375 161.066406 C 230.269531 159.152344 232.503906 157.472656 235.5625 156 C 231.949219 154.488281 229.332031 152.191406 227.707031 149.085938 C 226.09375 146 225.277344 140.914062 225.277344 133.863281 C 225.277344 127.484375 225.230469 123.675781 225.089844 122.46875 C 224.820312 120.234375 224.167969 118.671875 223.09375 117.785156 C 222.035156 116.914062 219.941406 116.460938 216.835938 116.460938 L 215.304688 116.460938 L 215.304688 108.742188 L 218.054688 108.742188 C 221.261719 108.742188 223.59375 109.007812 225.035156 109.53125 C 227.136719 110.285156 228.863281 111.511719 230.242188 113.1875 C 231.621094 114.886719 232.523438 117.015625 232.925781 119.617188 C 233.328125 122.203125 233.5625 126.445312 233.597656 132.351562 C 233.636719 138.242188 233.898438 142.324219 234.421875 144.585938 C 234.960938 146.851562 236.019531 148.628906 237.59375 149.941406 C 239.1875 151.265625 241.253906 151.957031 243.769531 152.003906 L 243.769531 160.023438 Z M 130.867188 160.035156 L 130.867188 152.015625 C 133.382812 151.96875 135.449219 151.277344 137.042969 149.953125 C 138.621094 148.640625 139.679688 146.867188 140.214844 144.632812 C 140.730469 142.382812 141.019531 138.527344 141.039062 133.058594 C 141.074219 127.570312 141.171875 123.976562 141.339844 122.234375 C 141.640625 119.445312 142.183594 117.234375 142.980469 115.570312 C 143.789062 113.910156 144.777344 112.585938 145.953125 111.59375 C 147.144531 110.589844 148.65625 109.832031 150.484375 109.316406 C 151.726562 108.949219 153.757812 108.761719 156.574219 108.761719 L 159.332031 108.761719 L 159.332031 116.480469 L 157.804688 116.480469 C 154.398438 116.480469 152.148438 117.101562 151.023438 118.328125 C 149.914062 119.554688 149.359375 122.324219 149.359375 126.617188 C 149.359375 134.808594 149.210938 140.011719 148.910156 142.207031 C 148.386719 145.832031 147.332031 148.753906 145.769531 150.933594 C 144.191406 153.097656 141.960938 154.796875 139.070312 156.015625 C 142.851562 157.808594 145.496094 160.191406 147.042969 163.164062 C 148.589844 166.136719 149.359375 171.136719 149.359375 178.183594 C 149.359375 184.578125 149.425781 188.386719 149.59375 189.644531 C 149.832031 191.847656 150.46875 193.371094 151.546875 194.242188 C 152.605469 195.097656 154.699219 195.535156 157.804688 195.535156 L 159.332031 195.535156 L 159.332031 203.253906 L 156.574219 203.253906 C 153.367188 203.253906 151.039062 203.003906 149.59375 202.464844 C 147.496094 201.746094 145.769531 200.535156 144.390625 198.84375 C 143.011719 197.136719 142.109375 194.988281 141.707031 192.402344 C 141.304688 189.796875 141.070312 185.554688 141.03125 179.664062 C 141.015625 173.753906 140.730469 169.691406 140.207031 167.441406 C 139.671875 165.191406 138.613281 163.417969 137.035156 162.105469 C 135.441406 160.792969 133.378906 160.109375 130.863281 160.042969 Z M 130.867188 160.035156"/></g><g fill="#2A2E30"><g><g><path d="M 2.859375 0 C 2.453125 0 2.25 -0.203125 2.25 -0.609375 L 2.25 -24.75 C 2.25 -25.15625 2.453125 -25.359375 2.859375 -25.359375 L 6.734375 -25.359375 C 7.046875 -25.359375 7.289062 -25.226562 7.46875 -24.96875 L 12.71875 -16.484375 C 12.769531 -16.410156 12.820312 -16.375 12.875 -16.375 C 12.9375 -16.375 12.984375 -16.410156 13.015625 -16.484375 L 18.328125 -24.96875 C 18.503906 -25.226562 18.75 -25.359375 19.0625 -25.359375 L 22.9375 -25.359375 C 23.34375 -25.359375 23.546875 -25.15625 23.546875 -24.75 L 23.546875 -0.609375 C 23.546875 -0.203125 23.34375 0 22.9375 0 L 19.0625 0 C 18.644531 0 18.4375 -0.203125 18.4375 -0.609375 L 18.4375 -16.3125 C 18.4375 -16.40625 18.40625 -16.460938 18.34375 -16.484375 C 18.289062 -16.503906 18.238281 -16.46875 18.1875 -16.375 L 14.53125 -10.40625 C 14.363281 -10.132812 14.125 -10 13.8125 -10 L 11.953125 -10 C 11.640625 -10 11.398438 -10.132812 11.234375 -10.40625 L 7.609375 -16.375 C 7.554688 -16.46875 7.5 -16.503906 7.4375 -16.484375 C 7.382812 -16.460938 7.359375 -16.40625 7.359375 -16.3125 L 7.359375 -0.609375 C 7.359375 -0.203125 7.148438 0 6.734375 0 Z M 2.859375 0" transform="translate(87.755 238.636)"/></g></g></g><g fill="#2A2E30"><g><g><path d="M 9.34375 -18.921875 C 10.914062 -18.921875 12.316406 -18.644531 13.546875 -18.09375 C 14.785156 -17.550781 15.75 -16.804688 16.4375 -15.859375 C 17.125 -14.921875 17.46875 -13.875 17.46875 -12.71875 L 17.46875 -0.609375 C 17.46875 -0.203125 17.257812 0 16.84375 0 L 12.96875 0 C 12.5625 0 12.359375 -0.203125 12.359375 -0.609375 L 12.359375 -1.484375 C 12.359375 -1.578125 12.332031 -1.628906 12.28125 -1.640625 C 12.238281 -1.660156 12.179688 -1.632812 12.109375 -1.5625 C 10.992188 -0.320312 9.335938 0.296875 7.140625 0.296875 C 5.273438 0.296875 3.773438 -0.160156 2.640625 -1.078125 C 1.503906 -2.003906 0.9375 -3.359375 0.9375 -5.140625 C 0.9375 -7.003906 1.585938 -8.445312 2.890625 -9.46875 C 4.203125 -10.5 6.066406 -11.015625 8.484375 -11.015625 L 12.140625 -11.015625 C 12.285156 -11.015625 12.359375 -11.085938 12.359375 -11.234375 L 12.359375 -12 C 12.359375 -12.789062 12.109375 -13.410156 11.609375 -13.859375 C 11.117188 -14.304688 10.398438 -14.53125 9.453125 -14.53125 C 8.734375 -14.53125 8.132812 -14.410156 7.65625 -14.171875 C 7.1875 -13.929688 6.867188 -13.59375 6.703125 -13.15625 C 6.554688 -12.8125 6.316406 -12.65625 5.984375 -12.6875 L 1.953125 -13.1875 C 1.765625 -13.207031 1.613281 -13.257812 1.5 -13.34375 C 1.394531 -13.4375 1.351562 -13.554688 1.375 -13.703125 C 1.5 -14.691406 1.914062 -15.582031 2.625 -16.375 C 3.34375 -17.175781 4.285156 -17.800781 5.453125 -18.25 C 6.617188 -18.695312 7.914062 -18.921875 9.34375 -18.921875 Z M 8.625 -3.515625 C 9.664062 -3.515625 10.546875 -3.789062 11.265625 -4.34375 C 11.992188 -4.90625 12.359375 -5.617188 12.359375 -6.484375 L 12.359375 -7.75 C 12.359375 -7.894531 12.285156 -7.96875 12.140625 -7.96875 L 9.5625 -7.96875 C 8.476562 -7.96875 7.617188 -7.757812 6.984375 -7.34375 C 6.359375 -6.9375 6.046875 -6.359375 6.046875 -5.609375 C 6.046875 -4.960938 6.28125 -4.453125 6.75 -4.078125 C 7.226562 -3.703125 7.851562 -3.515625 8.625 -3.515625 Z M 8.625 -3.515625" transform="translate(114.932 238.636)"/></g></g></g><g fill="#2A2E30"><g><g><path d="M 12.578125 -15.140625 C 12.578125 -14.734375 12.367188 -14.53125 11.953125 -14.53125 L 8.703125 -14.53125 C 8.554688 -14.53125 8.484375 -14.457031 8.484375 -14.3125 L 8.484375 -6.8125 C 8.484375 -6.007812 8.644531 -5.421875 8.96875 -5.046875 C 9.289062 -4.679688 9.816406 -4.5 10.546875 -4.5 L 11.5625 -4.5 C 11.96875 -4.5 12.171875 -4.289062 12.171875 -3.875 L 12.171875 -0.765625 C 12.171875 -0.378906 11.96875 -0.160156 11.5625 -0.109375 C 10.644531 -0.0546875 9.976562 -0.03125 9.5625 -0.03125 C 7.5625 -0.03125 6.066406 -0.367188 5.078125 -1.046875 C 4.085938 -1.722656 3.578125 -2.976562 3.546875 -4.8125 L 3.546875 -14.3125 C 3.546875 -14.457031 3.472656 -14.53125 3.328125 -14.53125 L 1.484375 -14.53125 C 1.078125 -14.53125 0.875 -14.734375 0.875 -15.140625 L 0.875 -18.015625 C 0.875 -18.421875 1.078125 -18.625 1.484375 -18.625 L 3.328125 -18.625 C 3.472656 -18.625 3.546875 -18.695312 3.546875 -18.84375 L 3.546875 -22.9375 C 3.546875 -23.34375 3.753906 -23.546875 4.171875 -23.546875 L 7.859375 -23.546875 C 8.273438 -23.546875 8.484375 -23.34375 8.484375 -22.9375 L 8.484375 -18.84375 C 8.484375 -18.695312 8.554688 -18.625 8.703125 -18.625 L 11.953125 -18.625 C 12.367188 -18.625 12.578125 -18.421875 12.578125 -18.015625 Z M 12.578125 -15.140625" transform="translate(135.477 238.636)"/></g></g></g><g fill="#2A2E30"><g><g><path d="M 12.578125 -15.140625 C 12.578125 -14.734375 12.367188 -14.53125 11.953125 -14.53125 L 8.703125 -14.53125 C 8.554688 -14.53125 8.484375 -14.457031 8.484375 -14.3125 L 8.484375 -6.8125 C 8.484375 -6.007812 8.644531 -5.421875 8.96875 -5.046875 C 9.289062 -4.679688 9.816406 -4.5 10.546875 -4.5 L 11.5625 -4.5 C 11.96875 -4.5 12.171875 -4.289062 12.171875 -3.875 L 12.171875 -0.765625 C 12.171875 -0.378906 11.96875 -0.160156 11.5625 -0.109375 C 10.644531 -0.0546875 9.976562 -0.03125 9.5625 -0.03125 C 7.5625 -0.03125 6.066406 -0.367188 5.078125 -1.046875 C 4.085938 -1.722656 3.578125 -2.976562 3.546875 -4.8125 L 3.546875 -14.3125 C 3.546875 -14.457031 3.472656 -14.53125 3.328125 -14.53125 L 1.484375 -14.53125 C 1.078125 -14.53125 0.875 -14.734375 0.875 -15.140625 L 0.875 -18.015625 C 0.875 -18.421875 1.078125 -18.625 1.484375 -18.625 L 3.328125 -18.625 C 3.472656 -18.625 3.546875 -18.695312 3.546875 -18.84375 L 3.546875 -22.9375 C 3.546875 -23.34375 3.753906 -23.546875 4.171875 -23.546875 L 7.859375 -23.546875 C 8.273438 -23.546875 8.484375 -23.34375 8.484375 -22.9375 L 8.484375 -18.84375 C 8.484375 -18.695312 8.554688 -18.625 8.703125 -18.625 L 11.953125 -18.625 C 12.367188 -18.625 12.578125 -18.421875 12.578125 -18.015625 Z M 12.578125 -15.140625" transform="translate(150.66 238.636)"/></g></g></g><g fill="#2A2E30"><g><g><path d="M 2.828125 0 C 2.410156 0 2.203125 -0.203125 2.203125 -0.609375 L 2.203125 -24.75 C 2.203125 -25.15625 2.410156 -25.359375 2.828125 -25.359375 L 6.703125 -25.359375 C 7.109375 -25.359375 7.3125 -25.15625 7.3125 -24.75 L 7.3125 -14.859375 C 7.3125 -14.765625 7.34375 -14.703125 7.40625 -14.671875 C 7.46875 -14.648438 7.523438 -14.675781 7.578125 -14.75 L 15.828125 -25 C 16.003906 -25.238281 16.257812 -25.359375 16.59375 -25.359375 L 20.984375 -25.359375 C 21.148438 -25.359375 21.28125 -25.328125 21.375 -25.265625 C 21.46875 -25.210938 21.515625 -25.125 21.515625 -25 C 21.515625 -24.90625 21.457031 -24.773438 21.34375 -24.609375 L 13.4375 -14.53125 C 13.363281 -14.457031 13.363281 -14.359375 13.4375 -14.234375 L 21.8125 -0.71875 C 21.882812 -0.625 21.921875 -0.519531 21.921875 -0.40625 C 21.921875 -0.132812 21.753906 0 21.421875 0 L 17.03125 0 C 16.71875 0 16.476562 -0.132812 16.3125 -0.40625 L 9.96875 -10.6875 C 9.9375 -10.757812 9.882812 -10.796875 9.8125 -10.796875 C 9.738281 -10.796875 9.679688 -10.757812 9.640625 -10.6875 L 7.421875 -7.859375 C 7.347656 -7.765625 7.3125 -7.679688 7.3125 -7.609375 L 7.3125 -0.609375 C 7.3125 -0.203125 7.109375 0 6.703125 0 Z M 2.828125 0" transform="translate(174.502 238.636)"/></g></g></g><g fill="#2A2E30"><g><g><path d="M 11.59375 -18.921875 C 13.53125 -18.921875 15.085938 -18.328125 16.265625 -17.140625 C 17.453125 -15.953125 18.046875 -14.34375 18.046875 -12.3125 L 18.046875 -0.609375 C 18.046875 -0.203125 17.835938 0 17.421875 0 L 13.546875 0 C 13.140625 0 12.9375 -0.203125 12.9375 -0.609375 L 12.9375 -11.265625 C 12.9375 -12.234375 12.671875 -13.019531 12.140625 -13.625 C 11.609375 -14.226562 10.894531 -14.53125 10 -14.53125 C 9.101562 -14.53125 8.378906 -14.226562 7.828125 -13.625 C 7.273438 -13.019531 7 -12.234375 7 -11.265625 L 7 -0.609375 C 7 -0.203125 6.789062 0 6.375 0 L 2.5 0 C 2.09375 0 1.890625 -0.203125 1.890625 -0.609375 L 1.890625 -18.015625 C 1.890625 -18.421875 2.09375 -18.625 2.5 -18.625 L 6.375 -18.625 C 6.789062 -18.625 7 -18.421875 7 -18.015625 L 7 -17 C 7 -16.894531 7.019531 -16.832031 7.0625 -16.8125 C 7.113281 -16.789062 7.160156 -16.816406 7.203125 -16.890625 C 8.203125 -18.242188 9.664062 -18.921875 11.59375 -18.921875 Z M 11.59375 -18.921875" transform="translate(198.599 238.636)"/></g></g></g><g fill="#2A2E30"><g><g><path d="M 4.703125 -20.40625 C 3.785156 -20.40625 3.035156 -20.6875 2.453125 -21.25 C 1.878906 -21.820312 1.59375 -22.550781 1.59375 -23.4375 C 1.59375 -24.332031 1.878906 -25.0625 2.453125 -25.625 C 3.035156 -26.195312 3.785156 -26.484375 4.703125 -26.484375 C 5.648438 -26.484375 6.40625 -26.207031 6.96875 -25.65625 C 7.539062 -25.101562 7.828125 -24.363281 7.828125 -23.4375 C 7.828125 -22.519531 7.539062 -21.785156 6.96875 -21.234375 C 6.40625 -20.679688 5.648438 -20.40625 4.703125 -20.40625 Z M 2.796875 0 C 2.378906 0 2.171875 -0.203125 2.171875 -0.609375 L 2.171875 -18.015625 C 2.171875 -18.421875 2.378906 -18.625 2.796875 -18.625 L 6.671875 -18.625 C 7.078125 -18.625 7.28125 -18.421875 7.28125 -18.015625 L 7.28125 -0.609375 C 7.28125 -0.203125 7.078125 0 6.671875 0 Z M 2.796875 0" transform="translate(219.832 238.636)"/></g></g></g><g fill="#2A2E30"><g><g><path d="M 13.265625 -18.015625 C 13.265625 -18.421875 13.46875 -18.625 13.875 -18.625 L 17.75 -18.625 C 18.164062 -18.625 18.375 -18.421875 18.375 -18.015625 L 18.375 -1.671875 C 18.375 1.492188 17.46875 3.753906 15.65625 5.109375 C 13.84375 6.460938 11.507812 7.140625 8.65625 7.140625 C 7.863281 7.140625 6.957031 7.078125 5.9375 6.953125 C 5.582031 6.929688 5.40625 6.71875 5.40625 6.3125 L 5.546875 2.9375 C 5.546875 2.738281 5.609375 2.582031 5.734375 2.46875 C 5.867188 2.363281 6.035156 2.335938 6.234375 2.390625 C 7.128906 2.515625 7.863281 2.578125 8.4375 2.578125 C 9.988281 2.578125 11.179688 2.238281 12.015625 1.5625 C 12.847656 0.882812 13.265625 -0.203125 13.265625 -1.703125 C 13.265625 -1.773438 13.238281 -1.816406 13.1875 -1.828125 C 13.132812 -1.835938 13.078125 -1.804688 13.015625 -1.734375 C 12.117188 -0.773438 10.785156 -0.296875 9.015625 -0.296875 C 7.453125 -0.296875 6.007812 -0.675781 4.6875 -1.4375 C 3.375 -2.195312 2.441406 -3.421875 1.890625 -5.109375 C 1.523438 -6.222656 1.34375 -7.660156 1.34375 -9.421875 C 1.34375 -11.304688 1.5625 -12.835938 2 -14.015625 C 2.5 -15.492188 3.351562 -16.679688 4.5625 -17.578125 C 5.769531 -18.472656 7.171875 -18.921875 8.765625 -18.921875 C 10.578125 -18.921875 11.992188 -18.375 13.015625 -17.28125 C 13.078125 -17.207031 13.132812 -17.179688 13.1875 -17.203125 C 13.238281 -17.234375 13.265625 -17.296875 13.265625 -17.390625 Z M 12.96875 -6.484375 C 13.164062 -7.210938 13.265625 -8.203125 13.265625 -9.453125 C 13.265625 -10.203125 13.238281 -10.78125 13.1875 -11.1875 C 13.132812 -11.601562 13.050781 -11.992188 12.9375 -12.359375 C 12.71875 -13.003906 12.351562 -13.523438 11.84375 -13.921875 C 11.34375 -14.328125 10.71875 -14.53125 9.96875 -14.53125 C 9.238281 -14.53125 8.617188 -14.328125 8.109375 -13.921875 C 7.609375 -13.523438 7.238281 -13.003906 7 -12.359375 C 6.65625 -11.628906 6.484375 -10.648438 6.484375 -9.421875 C 6.484375 -8.066406 6.628906 -7.097656 6.921875 -6.515625 C 7.140625 -5.867188 7.519531 -5.34375 8.0625 -4.9375 C 8.601562 -4.539062 9.25 -4.34375 10 -4.34375 C 10.769531 -4.34375 11.410156 -4.539062 11.921875 -4.9375 C 12.429688 -5.34375 12.78125 -5.859375 12.96875 -6.484375 Z M 12.96875 -6.484375" transform="translate(230.667 238.636)"/></g></g></g><g fill="#2A2E30"><g><g><path d="M 11.59375 -18.921875 C 13.53125 -18.921875 15.085938 -18.328125 16.265625 -17.140625 C 17.453125 -15.953125 18.046875 -14.34375 18.046875 -12.3125 L 18.046875 -0.609375 C 18.046875 -0.203125 17.835938 0 17.421875 0 L 13.546875 0 C 13.140625 0 12.9375 -0.203125 12.9375 -0.609375 L 12.9375 -11.265625 C 12.9375 -12.234375 12.671875 -13.019531 12.140625 -13.625 C 11.609375 -14.226562 10.894531 -14.53125 10 -14.53125 C 9.101562 -14.53125 8.378906 -14.226562 7.828125 -13.625 C 7.273438 -13.019531 7 -12.234375 7 -11.265625 L 7 -0.609375 C 7 -0.203125 6.789062 0 6.375 0 L 2.5 0 C 2.09375 0 1.890625 -0.203125 1.890625 -0.609375 L 1.890625 -24.75 C 1.890625 -25.15625 2.09375 -25.359375 2.5 -25.359375 L 6.375 -25.359375 C 6.789062 -25.359375 7 -25.15625 7 -24.75 L 7 -17 C 7 -16.894531 7.019531 -16.832031 7.0625 -16.8125 C 7.113281 -16.789062 7.160156 -16.816406 7.203125 -16.890625 C 8.203125 -18.242188 9.664062 -18.921875 11.59375 -18.921875 Z M 11.59375 -18.921875" transform="translate(252.227 238.636)"/></g></g></g><g fill="#2A2E30"><g><g><path d="M 12.578125 -15.140625 C 12.578125 -14.734375 12.367188 -14.53125 11.953125 -14.53125 L 8.703125 -14.53125 C 8.554688 -14.53125 8.484375 -14.457031 8.484375 -14.3125 L 8.484375 -6.8125 C 8.484375 -6.007812 8.644531 -5.421875 8.96875 -5.046875 C 9.289062 -4.679688 9.816406 -4.5 10.546875 -4.5 L 11.5625 -4.5 C 11.96875 -4.5 12.171875 -4.289062 12.171875 -3.875 L 12.171875 -0.765625 C 12.171875 -0.378906 11.96875 -0.160156 11.5625 -0.109375 C 10.644531 -0.0546875 9.976562 -0.03125 9.5625 -0.03125 C 7.5625 -0.03125 6.066406 -0.367188 5.078125 -1.046875 C 4.085938 -1.722656 3.578125 -2.976562 3.546875 -4.8125 L 3.546875 -14.3125 C 3.546875 -14.457031 3.472656 -14.53125 3.328125 -14.53125 L 1.484375 -14.53125 C 1.078125 -14.53125 0.875 -14.734375 0.875 -15.140625 L 0.875 -18.015625 C 0.875 -18.421875 1.078125 -18.625 1.484375 -18.625 L 3.328125 -18.625 C 3.472656 -18.625 3.546875 -18.695312 3.546875 -18.84375 L 3.546875 -22.9375 C 3.546875 -23.34375 3.753906 -23.546875 4.171875 -23.546875 L 7.859375 -23.546875 C 8.273438 -23.546875 8.484375 -23.34375 8.484375 -22.9375 L 8.484375 -18.84375 C 8.484375 -18.695312 8.554688 -18.625 8.703125 -18.625 L 11.953125 -18.625 C 12.367188 -18.625 12.578125 -18.421875 12.578125 -18.015625 Z M 12.578125 -15.140625" transform="translate(273.46 238.636)"/></g></g></g><g fill="#004AAD"><g><g><path d="M 3.578125 0 C 3.410156 0 3.3125 -0.078125 3.28125 -0.234375 L 0.359375 -11.078125 C 0.347656 -11.097656 0.34375 -11.125 0.34375 -11.15625 C 0.34375 -11.226562 0.363281 -11.28125 0.40625 -11.3125 C 0.445312 -11.351562 0.503906 -11.375 0.578125 -11.375 L 2.046875 -11.375 C 2.203125 -11.375 2.296875 -11.296875 2.328125 -11.140625 L 4.15625 -3.828125 C 4.164062 -3.785156 4.1875 -3.765625 4.21875 -3.765625 C 4.257812 -3.765625 4.285156 -3.785156 4.296875 -3.828125 L 6.03125 -11.140625 C 6.0625 -11.296875 6.15625 -11.375 6.3125 -11.375 L 7.765625 -11.375 C 7.929688 -11.375 8.03125 -11.296875 8.0625 -11.140625 L 9.90625 -3.828125 C 9.914062 -3.785156 9.9375 -3.765625 9.96875 -3.765625 C 10.007812 -3.765625 10.035156 -3.785156 10.046875 -3.828125 L 11.84375 -11.140625 C 11.875 -11.296875 11.96875 -11.375 12.125 -11.375 L 13.515625 -11.375 C 13.609375 -11.375 13.671875 -11.347656 13.703125 -11.296875 C 13.742188 -11.242188 13.753906 -11.171875 13.734375 -11.078125 L 10.96875 -0.234375 C 10.9375 -0.078125 10.835938 0 10.671875 0 L 9.265625 0 C 9.109375 0 9.015625 -0.078125 8.984375 -0.234375 L 7.09375 -7.875 C 7.082031 -7.925781 7.0625 -7.953125 7.03125 -7.953125 C 7 -7.953125 6.976562 -7.925781 6.96875 -7.875 L 5.171875 -0.234375 C 5.140625 -0.078125 5.046875 0 4.890625 0 Z M 3.578125 0" transform="translate(133.583 263.004)"/></g></g></g><g fill="#004AAD"><g><g><path d="M 4.734375 -1.46875 C 5.128906 -1.476562 5.472656 -1.5625 5.765625 -1.71875 C 6.066406 -1.875 6.3125 -2.085938 6.5 -2.359375 C 6.550781 -2.441406 6.625 -2.484375 6.71875 -2.484375 C 6.769531 -2.484375 6.816406 -2.46875 6.859375 -2.4375 L 7.640625 -1.8125 C 7.710938 -1.738281 7.75 -1.671875 7.75 -1.609375 C 7.75 -1.566406 7.734375 -1.519531 7.703125 -1.46875 C 7.390625 -0.96875 6.960938 -0.578125 6.421875 -0.296875 C 5.878906 -0.015625 5.253906 0.125 4.546875 0.125 C 3.691406 0.125 2.972656 -0.078125 2.390625 -0.484375 C 1.816406 -0.890625 1.398438 -1.453125 1.140625 -2.171875 C 0.921875 -2.773438 0.8125 -3.445312 0.8125 -4.1875 C 0.8125 -4.9375 0.867188 -5.515625 0.984375 -5.921875 C 1.191406 -6.679688 1.597656 -7.289062 2.203125 -7.75 C 2.816406 -8.207031 3.554688 -8.4375 4.421875 -8.4375 C 6.441406 -8.4375 7.628906 -7.328125 7.984375 -5.109375 C 8.035156 -4.742188 8.070312 -4.296875 8.09375 -3.765625 C 8.09375 -3.597656 8.003906 -3.515625 7.828125 -3.515625 L 2.796875 -3.515625 C 2.734375 -3.515625 2.703125 -3.476562 2.703125 -3.40625 C 2.703125 -3.113281 2.734375 -2.878906 2.796875 -2.703125 C 2.910156 -2.304688 3.132812 -2 3.46875 -1.78125 C 3.8125 -1.570312 4.234375 -1.46875 4.734375 -1.46875 Z M 4.40625 -6.8125 C 3.988281 -6.8125 3.644531 -6.707031 3.375 -6.5 C 3.113281 -6.300781 2.9375 -6.023438 2.84375 -5.671875 C 2.769531 -5.453125 2.726562 -5.222656 2.71875 -4.984375 C 2.707031 -4.921875 2.734375 -4.890625 2.796875 -4.890625 L 6.0625 -4.890625 C 6.125 -4.890625 6.15625 -4.921875 6.15625 -4.984375 C 6.113281 -5.304688 6.082031 -5.503906 6.0625 -5.578125 C 5.96875 -5.953125 5.773438 -6.25 5.484375 -6.46875 C 5.191406 -6.695312 4.832031 -6.8125 4.40625 -6.8125 Z M 4.40625 -6.8125" transform="translate(147.665 263.004)"/></g></g></g><g fill="#004AAD"><g><g><path d="M 8.015625 -6.15625 C 8.191406 -5.601562 8.28125 -4.941406 8.28125 -4.171875 C 8.28125 -3.429688 8.1875 -2.753906 8 -2.140625 C 7.757812 -1.441406 7.367188 -0.890625 6.828125 -0.484375 C 6.285156 -0.078125 5.632812 0.125 4.875 0.125 C 4.101562 0.125 3.484375 -0.15625 3.015625 -0.71875 C 2.992188 -0.757812 2.96875 -0.773438 2.9375 -0.765625 C 2.914062 -0.753906 2.90625 -0.726562 2.90625 -0.6875 L 2.90625 -0.265625 C 2.90625 -0.0859375 2.820312 0 2.65625 0 L 1.28125 0 C 1.113281 0 1.03125 -0.0859375 1.03125 -0.265625 L 1.03125 -11.109375 C 1.03125 -11.285156 1.113281 -11.375 1.28125 -11.375 L 2.65625 -11.375 C 2.820312 -11.375 2.90625 -11.285156 2.90625 -11.109375 L 2.90625 -7.671875 C 2.90625 -7.628906 2.914062 -7.601562 2.9375 -7.59375 C 2.96875 -7.59375 2.992188 -7.609375 3.015625 -7.640625 C 3.492188 -8.171875 4.113281 -8.4375 4.875 -8.4375 C 5.664062 -8.4375 6.328125 -8.234375 6.859375 -7.828125 C 7.390625 -7.429688 7.773438 -6.875 8.015625 -6.15625 Z M 5.953125 -2.296875 C 6.210938 -2.742188 6.34375 -3.359375 6.34375 -4.140625 C 6.34375 -4.984375 6.179688 -5.644531 5.859375 -6.125 C 5.554688 -6.582031 5.125 -6.8125 4.5625 -6.8125 C 4.039062 -6.8125 3.632812 -6.570312 3.34375 -6.09375 C 3.070312 -5.644531 2.9375 -5 2.9375 -4.15625 C 2.9375 -3.320312 3.0625 -2.695312 3.3125 -2.28125 C 3.613281 -1.769531 4.035156 -1.515625 4.578125 -1.515625 C 5.210938 -1.515625 5.671875 -1.773438 5.953125 -2.296875 Z M 5.953125 -2.296875" transform="translate(156.468 263.004)"/></g></g></g><g fill="#004AAD"><g><g><path d="M 1.453125 0 C 1.273438 0 1.1875 -0.0859375 1.1875 -0.265625 L 1.1875 -11.109375 C 1.1875 -11.285156 1.273438 -11.375 1.453125 -11.375 L 5.34375 -11.375 C 6.113281 -11.375 6.789062 -11.238281 7.375 -10.96875 C 7.957031 -10.695312 8.410156 -10.304688 8.734375 -9.796875 C 9.054688 -9.296875 9.21875 -8.710938 9.21875 -8.046875 L 9.21875 -3.328125 C 9.21875 -2.660156 9.054688 -2.070312 8.734375 -1.5625 C 8.410156 -1.0625 7.957031 -0.675781 7.375 -0.40625 C 6.789062 -0.132812 6.113281 0 5.34375 0 Z M 3.078125 -1.71875 C 3.078125 -1.65625 3.109375 -1.625 3.171875 -1.625 L 5.421875 -1.625 C 5.992188 -1.625 6.453125 -1.804688 6.796875 -2.171875 C 7.140625 -2.535156 7.316406 -3.019531 7.328125 -3.625 L 7.328125 -7.734375 C 7.328125 -8.347656 7.148438 -8.835938 6.796875 -9.203125 C 6.453125 -9.566406 5.988281 -9.75 5.40625 -9.75 L 3.171875 -9.75 C 3.109375 -9.75 3.078125 -9.71875 3.078125 -9.65625 Z M 3.078125 -1.71875" transform="translate(168.666 263.004)"/></g></g></g><g fill="#004AAD"><g><g><path d="M 4.734375 -1.46875 C 5.128906 -1.476562 5.472656 -1.5625 5.765625 -1.71875 C 6.066406 -1.875 6.3125 -2.085938 6.5 -2.359375 C 6.550781 -2.441406 6.625 -2.484375 6.71875 -2.484375 C 6.769531 -2.484375 6.816406 -2.46875 6.859375 -2.4375 L 7.640625 -1.8125 C 7.710938 -1.738281 7.75 -1.671875 7.75 -1.609375 C 7.75 -1.566406 7.734375 -1.519531 7.703125 -1.46875 C 7.390625 -0.96875 6.960938 -0.578125 6.421875 -0.296875 C 5.878906 -0.015625 5.253906 0.125 4.546875 0.125 C 3.691406 0.125 2.972656 -0.078125 2.390625 -0.484375 C 1.816406 -0.890625 1.398438 -1.453125 1.140625 -2.171875 C 0.921875 -2.773438 0.8125 -3.445312 0.8125 -4.1875 C 0.8125 -4.9375 0.867188 -5.515625 0.984375 -5.921875 C 1.191406 -6.679688 1.597656 -7.289062 2.203125 -7.75 C 2.816406 -8.207031 3.554688 -8.4375 4.421875 -8.4375 C 6.441406 -8.4375 7.628906 -7.328125 7.984375 -5.109375 C 8.035156 -4.742188 8.070312 -4.296875 8.09375 -3.765625 C 8.09375 -3.597656 8.003906 -3.515625 7.828125 -3.515625 L 2.796875 -3.515625 C 2.734375 -3.515625 2.703125 -3.476562 2.703125 -3.40625 C 2.703125 -3.113281 2.734375 -2.878906 2.796875 -2.703125 C 2.910156 -2.304688 3.132812 -2 3.46875 -1.78125 C 3.8125 -1.570312 4.234375 -1.46875 4.734375 -1.46875 Z M 4.40625 -6.8125 C 3.988281 -6.8125 3.644531 -6.707031 3.375 -6.5 C 3.113281 -6.300781 2.9375 -6.023438 2.84375 -5.671875 C 2.769531 -5.453125 2.726562 -5.222656 2.71875 -4.984375 C 2.707031 -4.921875 2.734375 -4.890625 2.796875 -4.890625 L 6.0625 -4.890625 C 6.125 -4.890625 6.15625 -4.921875 6.15625 -4.984375 C 6.113281 -5.304688 6.082031 -5.503906 6.0625 -5.578125 C 5.96875 -5.953125 5.773438 -6.25 5.484375 -6.46875 C 5.191406 -6.695312 4.832031 -6.8125 4.40625 -6.8125 Z M 4.40625 -6.8125" transform="translate(178.704 263.004)"/></g></g></g><g fill="#004AAD"><g><g><path d="M 3.3125 0 C 3.164062 0 3.066406 -0.0703125 3.015625 -0.21875 L 0.453125 -8.015625 C 0.441406 -8.046875 0.4375 -8.082031 0.4375 -8.125 C 0.4375 -8.238281 0.515625 -8.296875 0.671875 -8.296875 L 2.1875 -8.296875 C 2.34375 -8.296875 2.441406 -8.226562 2.484375 -8.09375 L 4.03125 -2.703125 C 4.050781 -2.648438 4.070312 -2.625 4.09375 -2.625 C 4.125 -2.625 4.144531 -2.648438 4.15625 -2.703125 L 5.703125 -8.078125 C 5.742188 -8.222656 5.84375 -8.296875 6 -8.296875 L 7.53125 -8.28125 C 7.613281 -8.28125 7.675781 -8.253906 7.71875 -8.203125 C 7.757812 -8.148438 7.765625 -8.082031 7.734375 -8 L 5.1875 -0.21875 C 5.144531 -0.0703125 5.046875 0 4.890625 0 Z M 3.3125 0" transform="translate(187.507 263.004)"/></g></g></g><g fill="#004AAD"><g><g><path d="M 4.734375 -1.46875 C 5.128906 -1.476562 5.472656 -1.5625 5.765625 -1.71875 C 6.066406 -1.875 6.3125 -2.085938 6.5 -2.359375 C 6.550781 -2.441406 6.625 -2.484375 6.71875 -2.484375 C 6.769531 -2.484375 6.816406 -2.46875 6.859375 -2.4375 L 7.640625 -1.8125 C 7.710938 -1.738281 7.75 -1.671875 7.75 -1.609375 C 7.75 -1.566406 7.734375 -1.519531 7.703125 -1.46875 C 7.390625 -0.96875 6.960938 -0.578125 6.421875 -0.296875 C 5.878906 -0.015625 5.253906 0.125 4.546875 0.125 C 3.691406 0.125 2.972656 -0.078125 2.390625 -0.484375 C 1.816406 -0.890625 1.398438 -1.453125 1.140625 -2.171875 C 0.921875 -2.773438 0.8125 -3.445312 0.8125 -4.1875 C 0.8125 -4.9375 0.867188 -5.515625 0.984375 -5.921875 C 1.191406 -6.679688 1.597656 -7.289062 2.203125 -7.75 C 2.816406 -8.207031 3.554688 -8.4375 4.421875 -8.4375 C 6.441406 -8.4375 7.628906 -7.328125 7.984375 -5.109375 C 8.035156 -4.742188 8.070312 -4.296875 8.09375 -3.765625 C 8.09375 -3.597656 8.003906 -3.515625 7.828125 -3.515625 L 2.796875 -3.515625 C 2.734375 -3.515625 2.703125 -3.476562 2.703125 -3.40625 C 2.703125 -3.113281 2.734375 -2.878906 2.796875 -2.703125 C 2.910156 -2.304688 3.132812 -2 3.46875 -1.78125 C 3.8125 -1.570312 4.234375 -1.46875 4.734375 -1.46875 Z M 4.40625 -6.8125 C 3.988281 -6.8125 3.644531 -6.707031 3.375 -6.5 C 3.113281 -6.300781 2.9375 -6.023438 2.84375 -5.671875 C 2.769531 -5.453125 2.726562 -5.222656 2.71875 -4.984375 C 2.707031 -4.921875 2.734375 -4.890625 2.796875 -4.890625 L 6.0625 -4.890625 C 6.125 -4.890625 6.15625 -4.921875 6.15625 -4.984375 C 6.113281 -5.304688 6.082031 -5.503906 6.0625 -5.578125 C 5.96875 -5.953125 5.773438 -6.25 5.484375 -6.46875 C 5.191406 -6.695312 4.832031 -6.8125 4.40625 -6.8125 Z M 4.40625 -6.8125" transform="translate(195.693 263.004)"/></g></g></g><g fill="#004AAD"><g><g><path d="M 1.28125 0 C 1.113281 0 1.03125 -0.0859375 1.03125 -0.265625 L 1.03125 -11.109375 C 1.03125 -11.285156 1.113281 -11.375 1.28125 -11.375 L 2.65625 -11.375 C 2.820312 -11.375 2.90625 -11.285156 2.90625 -11.109375 L 2.90625 -0.265625 C 2.90625 -0.0859375 2.820312 0 2.65625 0 Z M 1.28125 0" transform="translate(204.497 263.004)"/></g></g></g><g fill="#004AAD"><g><g><path d="M 4.546875 0.125 C 3.691406 0.125 2.953125 -0.0859375 2.328125 -0.515625 C 1.710938 -0.953125 1.289062 -1.554688 1.0625 -2.328125 C 0.875 -2.859375 0.78125 -3.472656 0.78125 -4.171875 C 0.78125 -4.867188 0.867188 -5.488281 1.046875 -6.03125 C 1.285156 -6.789062 1.710938 -7.378906 2.328125 -7.796875 C 2.953125 -8.222656 3.695312 -8.4375 4.5625 -8.4375 C 5.382812 -8.4375 6.097656 -8.222656 6.703125 -7.796875 C 7.304688 -7.378906 7.734375 -6.796875 7.984375 -6.046875 C 8.171875 -5.523438 8.265625 -4.90625 8.265625 -4.1875 C 8.265625 -3.507812 8.175781 -2.894531 8 -2.34375 C 7.75 -1.570312 7.316406 -0.96875 6.703125 -0.53125 C 6.097656 -0.09375 5.378906 0.125 4.546875 0.125 Z M 4.546875 -1.5 C 4.953125 -1.5 5.296875 -1.609375 5.578125 -1.828125 C 5.867188 -2.054688 6.070312 -2.378906 6.1875 -2.796875 C 6.3125 -3.140625 6.375 -3.59375 6.375 -4.15625 C 6.375 -4.6875 6.316406 -5.144531 6.203125 -5.53125 C 6.085938 -5.9375 5.878906 -6.25 5.578125 -6.46875 C 5.285156 -6.695312 4.929688 -6.8125 4.515625 -6.8125 C 4.109375 -6.8125 3.753906 -6.695312 3.453125 -6.46875 C 3.160156 -6.25 2.957031 -5.9375 2.84375 -5.53125 C 2.738281 -5.144531 2.6875 -4.6875 2.6875 -4.15625 C 2.6875 -3.625 2.738281 -3.171875 2.84375 -2.796875 C 2.957031 -2.378906 3.164062 -2.054688 3.46875 -1.828125 C 3.769531 -1.609375 4.128906 -1.5 4.546875 -1.5 Z M 4.546875 -1.5" transform="translate(208.444 263.004)"/></g></g></g><g fill="#004AAD"><g><g><path d="M 8.0625 -6.15625 C 8.257812 -5.5625 8.359375 -4.882812 8.359375 -4.125 C 8.359375 -3.351562 8.265625 -2.691406 8.078125 -2.140625 C 7.835938 -1.429688 7.453125 -0.875 6.921875 -0.46875 C 6.390625 -0.0703125 5.726562 0.125 4.9375 0.125 C 4.175781 0.125 3.5625 -0.140625 3.09375 -0.671875 C 3.070312 -0.703125 3.046875 -0.710938 3.015625 -0.703125 C 2.984375 -0.703125 2.96875 -0.679688 2.96875 -0.640625 L 2.96875 2.8125 C 2.96875 2.988281 2.882812 3.078125 2.71875 3.078125 L 1.34375 3.078125 C 1.175781 3.078125 1.09375 2.988281 1.09375 2.8125 L 1.09375 -8.046875 C 1.09375 -8.210938 1.175781 -8.296875 1.34375 -8.296875 L 2.71875 -8.296875 C 2.882812 -8.296875 2.96875 -8.210938 2.96875 -8.046875 L 2.96875 -7.625 C 2.96875 -7.582031 2.984375 -7.554688 3.015625 -7.546875 C 3.046875 -7.535156 3.070312 -7.550781 3.09375 -7.59375 C 3.550781 -8.15625 4.164062 -8.4375 4.9375 -8.4375 C 5.695312 -8.4375 6.347656 -8.234375 6.890625 -7.828125 C 7.429688 -7.421875 7.820312 -6.863281 8.0625 -6.15625 Z M 5.9375 -2.171875 C 6.25 -2.648438 6.40625 -3.3125 6.40625 -4.15625 C 6.40625 -4.9375 6.273438 -5.554688 6.015625 -6.015625 C 5.734375 -6.535156 5.273438 -6.796875 4.640625 -6.796875 C 4.097656 -6.796875 3.675781 -6.539062 3.375 -6.03125 C 3.125 -5.601562 3 -4.972656 3 -4.140625 C 3 -3.296875 3.132812 -2.648438 3.40625 -2.203125 C 3.695312 -1.734375 4.101562 -1.5 4.625 -1.5 C 5.1875 -1.5 5.625 -1.722656 5.9375 -2.171875 Z M 5.9375 -2.171875" transform="translate(217.49 263.004)"/></g></g></g><g fill="#004AAD"><g><g><path d="M 4.734375 -1.46875 C 5.128906 -1.476562 5.472656 -1.5625 5.765625 -1.71875 C 6.066406 -1.875 6.3125 -2.085938 6.5 -2.359375 C 6.550781 -2.441406 6.625 -2.484375 6.71875 -2.484375 C 6.769531 -2.484375 6.816406 -2.46875 6.859375 -2.4375 L 7.640625 -1.8125 C 7.710938 -1.738281 7.75 -1.671875 7.75 -1.609375 C 7.75 -1.566406 7.734375 -1.519531 7.703125 -1.46875 C 7.390625 -0.96875 6.960938 -0.578125 6.421875 -0.296875 C 5.878906 -0.015625 5.253906 0.125 4.546875 0.125 C 3.691406 0.125 2.972656 -0.078125 2.390625 -0.484375 C 1.816406 -0.890625 1.398438 -1.453125 1.140625 -2.171875 C 0.921875 -2.773438 0.8125 -3.445312 0.8125 -4.1875 C 0.8125 -4.9375 0.867188 -5.515625 0.984375 -5.921875 C 1.191406 -6.679688 1.597656 -7.289062 2.203125 -7.75 C 2.816406 -8.207031 3.554688 -8.4375 4.421875 -8.4375 C 6.441406 -8.4375 7.628906 -7.328125 7.984375 -5.109375 C 8.035156 -4.742188 8.070312 -4.296875 8.09375 -3.765625 C 8.09375 -3.597656 8.003906 -3.515625 7.828125 -3.515625 L 2.796875 -3.515625 C 2.734375 -3.515625 2.703125 -3.476562 2.703125 -3.40625 C 2.703125 -3.113281 2.734375 -2.878906 2.796875 -2.703125 C 2.910156 -2.304688 3.132812 -2 3.46875 -1.78125 C 3.8125 -1.570312 4.234375 -1.46875 4.734375 -1.46875 Z M 4.40625 -6.8125 C 3.988281 -6.8125 3.644531 -6.707031 3.375 -6.5 C 3.113281 -6.300781 2.9375 -6.023438 2.84375 -5.671875 C 2.769531 -5.453125 2.726562 -5.222656 2.71875 -4.984375 C 2.707031 -4.921875 2.734375 -4.890625 2.796875 -4.890625 L 6.0625 -4.890625 C 6.125 -4.890625 6.15625 -4.921875 6.15625 -4.984375 C 6.113281 -5.304688 6.082031 -5.503906 6.0625 -5.578125 C 5.96875 -5.953125 5.773438 -6.25 5.484375 -6.46875 C 5.191406 -6.695312 4.832031 -6.8125 4.40625 -6.8125 Z M 4.40625 -6.8125" transform="translate(226.505 263.004)"/></g></g></g><g fill="#004AAD"><g><g><path d="M 4.875 -8.40625 C 5.1875 -8.40625 5.472656 -8.34375 5.734375 -8.21875 C 5.867188 -8.15625 5.914062 -8.046875 5.875 -7.890625 L 5.625 -6.546875 C 5.613281 -6.460938 5.582031 -6.410156 5.53125 -6.390625 C 5.476562 -6.367188 5.40625 -6.367188 5.3125 -6.390625 C 5.1875 -6.429688 5.015625 -6.453125 4.796875 -6.453125 C 4.660156 -6.453125 4.554688 -6.445312 4.484375 -6.4375 C 4.023438 -6.414062 3.644531 -6.253906 3.34375 -5.953125 C 3.039062 -5.660156 2.890625 -5.273438 2.890625 -4.796875 L 2.890625 -0.265625 C 2.890625 -0.0859375 2.800781 0 2.625 0 L 1.265625 0 C 1.085938 0 1 -0.0859375 1 -0.265625 L 1 -8.046875 C 1 -8.210938 1.085938 -8.296875 1.265625 -8.296875 L 2.625 -8.296875 C 2.800781 -8.296875 2.890625 -8.210938 2.890625 -8.046875 L 2.890625 -7.40625 C 2.890625 -7.363281 2.898438 -7.335938 2.921875 -7.328125 C 2.941406 -7.316406 2.960938 -7.332031 2.984375 -7.375 C 3.441406 -8.0625 4.070312 -8.40625 4.875 -8.40625 Z M 4.875 -8.40625" transform="translate(235.308 263.004)"/></g></g></g></svg>